<svg width="24" height="24" viewBox="0 0 24 24" xmlns="http://www.w3.org/2000/svg" xmlns:xlink="http://www.w3.org/1999/xlink">
    <g id="Group">
        <path id="Path" fill="none" stroke="none" d="M 0 0 L 24 0 L 24 24 L 0 24 Z"/>
    </g>
    <g id="g1">
        <g id="g2">
            <path id="path1" fill="#000000" stroke="none" d="M 19.030001 3.559999 C 17.360001 2.17 15.29 1.26 13 1.049999 L 13 3.059999 C 14.73 3.25 16.309999 3.940001 17.610001 4.98 L 19.030001 3.559999 Z"/>
            <path id="path2" fill="#000000" stroke="none" d="M 11 3.059999 L 11 1.049999 C 8.71 1.25 6.64 2.17 4.97 3.559999 L 6.39 4.98 C 7.69 3.940001 9.27 3.25 11 3.059999 Z"/>
            <path id="path3" fill="#000000" stroke="none" d="M 4.98 6.389999 L 3.56 4.969999 C 2.17 6.639999 1.26 8.71 1.05 11 L 3.06 11 C 3.25 9.27 3.94 7.690001 4.98 6.389999 Z"/>
            <path id="path4" fill="#000000" stroke="none" d="M 20.940001 11 L 22.950001 11 C 22.74 8.71 21.83 6.639999 20.440001 4.969999 L 19.02 6.389999 C 20.059999 7.690001 20.75 9.27 20.940001 11 Z"/>
            <path id="path5" fill="#000000" stroke="none" d="M 12 21 C 8.89 21 6.15 19.41 4.54 17 L 7 17 L 7 15 L 1 15 L 1 21 L 3 21 L 3 18.299999 C 4.99 21.139999 8.27 23 12 23 C 16.870001 23 21 19.83 22.440001 15.44 L 20.48 14.99 C 19.25 18.48 15.92 21 12 21 Z"/>
        </g>
    </g>
    <path id="play-fill" fill="#000000" stroke="none" d="M 16.596001 12.697 L 10.233 16.389 C 9.693 16.702 9 16.323 9 15.692 L 9 8.308001 C 9 7.677999 9.692 7.298 10.233 7.612 L 16.596001 11.304 C 16.84605 11.446745 17.000393 11.712575 17.000393 12.0005 C 17.000393 12.288425 16.84605 12.554255 16.596001 12.697 Z"/>
</svg>
