<svg width="24" height="24" viewBox="0 0 24 24" xmlns="http://www.w3.org/2000/svg" xmlns:xlink="http://www.w3.org/1999/xlink">
    <g id="Group">
        <path id="Path" fill="none" stroke="none" visibility="hidden" d="M 0 0 L 24 0 L 24 24 L 0 24 Z"/>
    </g>
    <g id="g1">
        <g id="g2">
            <path id="path1" fill="#000000" stroke="none" visibility="hidden" d="M 19.030001 3.559999 C 17.360001 2.17 15.29 1.26 13 1.049999 L 13 3.059999 C 14.73 3.25 16.309999 3.940001 17.610001 4.98 L 19.030001 3.559999 Z"/>
            <path id="path2" fill="#000000" stroke="none" visibility="hidden" d="M 11 3.059999 L 11 1.049999 C 8.71 1.25 6.64 2.17 4.97 3.559999 L 6.39 4.98 C 7.69 3.940001 9.27 3.25 11 3.059999 Z"/>
            <path id="path3" fill="#000000" stroke="none" visibility="hidden" d="M 4.98 6.389999 L 3.56 4.969999 C 2.17 6.639999 1.26 8.71 1.05 11 L 3.06 11 C 3.25 9.27 3.94 7.690001 4.98 6.389999 Z"/>
            <path id="path4" fill="#000000" stroke="none" visibility="hidden" d="M 20.940001 11 L 22.950001 11 C 22.74 8.71 21.83 6.639999 20.440001 4.969999 L 19.02 6.389999 C 20.059999 7.690001 20.75 9.27 20.940001 11 Z"/>
            <path id="path5" fill="#000000" stroke="none" visibility="hidden" d="M 12 21 C 8.89 21 6.15 19.41 4.54 17 L 7 17 L 7 15 L 1 15 L 1 21 L 3 21 L 3 18.299999 C 4.99 21.139999 8.27 23 12 23 C 16.870001 23 21 19.83 22.440001 15.44 L 20.48 14.99 C 19.25 18.48 15.92 21 12 21 Z"/>
        </g>
    </g>
    <path id="play-fill" fill="#000000" stroke="none" visibility="hidden" d="M 16.596001 12.697 L 10.233 16.389 C 9.693 16.702 9 16.323 9 15.692 L 9 8.308001 C 9 7.677999 9.692 7.298 10.233 7.612 L 16.596001 11.304 C 16.84605 11.446745 17.000393 11.712575 17.000393 12.0005 C 17.000393 12.288425 16.84605 12.554255 16.596001 12.697 Z"/>
    <g id="shuffle">
        <path id="path6" fill="none" stroke="none" d="M -1 -1 L 25 -1 L 25 25 L -1 25 Z"/>
        <path id="path7" fill="#000000" stroke="none" d="M 19.583334 2.25 L 4.416667 2.25 C 3.225 2.25 2.25 3.225 2.25 4.416666 L 2.25 19.583334 C 2.25 20.775 3.225 21.75 4.416667 21.75 L 19.583334 21.75 C 20.775 21.75 21.75 20.775 21.75 19.583334 L 21.75 4.416666 C 21.75 3.225 20.775 2.25 19.583334 2.25 Z M 19.583334 19.583334 L 4.416667 19.583334 L 4.416667 4.416666 L 19.583334 4.416666 L 19.583334 19.583334 Z"/>
        <path id="path8" fill="#000000" stroke="none" d="M 8.75 16.875 C 8.75 17.772461 8.022463 18.5 7.125 18.5 C 6.227537 18.5 5.5 17.772461 5.5 16.875 C 5.5 15.977537 6.227537 15.25 7.125 15.25 C 8.022463 15.25 8.75 15.977537 8.75 16.875 Z"/>
        <path id="path9" fill="#000000" stroke="none" d="M 8.75 7.125 C 8.75 8.022463 8.022463 8.75 7.125 8.75 C 6.227537 8.75 5.5 8.022463 5.5 7.125 C 5.5 6.227537 6.227537 5.5 7.125 5.5 C 8.022463 5.5 8.75 6.227537 8.75 7.125 Z"/>
        <path id="path10" fill="#000000" stroke="none" d="M 13.625 12 C 13.625 12.897463 12.897463 13.625 12 13.625 C 11.102537 13.625 10.375 12.897463 10.375 12 C 10.375 11.102537 11.102537 10.375 12 10.375 C 12.897463 10.375 13.625 11.102537 13.625 12 Z"/>
        <path id="path11" fill="#000000" stroke="none" d="M 18.5 16.875 C 18.5 17.772461 17.772461 18.5 16.875 18.5 C 15.977537 18.5 15.25 17.772461 15.25 16.875 C 15.25 15.977537 15.977537 15.25 16.875 15.25 C 17.772461 15.25 18.5 15.977537 18.5 16.875 Z"/>
        <path id="path12" fill="#000000" stroke="none" d="M 18.5 7.125 C 18.5 8.022463 17.772461 8.75 16.875 8.75 C 15.977537 8.75 15.25 8.022463 15.25 7.125 C 15.25 6.227537 15.977537 5.5 16.875 5.5 C 17.772461 5.5 18.5 6.227537 18.5 7.125 Z"/>
    </g>
</svg>
